<?xml version="1.0" encoding="UTF-8"?>
<!DOCTYPE svg PUBLIC "-//W3C//DTD SVG 1.1//EN" "http://www.w3.org/Graphics/SVG/1.1/DTD/svg11.dtd">
<!-- Creator: CorelDRAW 2021 (64 Bit) -->
<svg xmlns="http://www.w3.org/2000/svg" xml:space="preserve" width="185.216mm" height="44.1238mm" version="1.1" style="shape-rendering:geometricPrecision; text-rendering:geometricPrecision; image-rendering:optimizeQuality; fill-rule:evenodd; clip-rule:evenodd"
viewBox="0 0 18039.41 4297.5"
 xmlns:xlink="http://www.w3.org/1999/xlink"
 xmlns:xodm="http://www.corel.com/coreldraw/odm/2003">
 <defs>
  <style type="text/css">
   <![CDATA[
    .fil2 {fill:none}
    .fil1 {fill:#FEFEFE}
    .fil3 {fill:#10BCC8}
    .fil4 {fill:#7AC33E}
    .fil0 {fill:url(#id1)}
   ]]>
  </style>
    <clipPath id="id0">
     <path d="M364.24 0l3400.49 0c200.33,0 364.24,163.91 364.24,364.24l0 3569.01c0,200.33 -163.91,364.24 -364.24,364.24l-3400.49 0c-200.33,0 -364.24,-163.91 -364.24,-364.24l0 -3569.01c0,-200.33 163.91,-364.24 364.24,-364.24z"/>
    </clipPath>
  <linearGradient id="id1" gradientUnits="userSpaceOnUse" x1="871.64" y1="2255.4" x2="3719.45" y2="375.84">
   <stop offset="0" style="stop-opacity:1; stop-color:#009F9A"/>
   <stop offset="1" style="stop-opacity:1; stop-color:#7AC33E"/>
  </linearGradient>
 </defs>
 <g id="Camada_x0020_1">
  <metadata id="CorelCorpID_0Corel-Layer"/>
  <g id="_2782450619392">
   <path class="fil0" d="M364.24 0l3400.49 0c200.33,0 364.24,163.91 364.24,364.24l0 3569.01c0,200.33 -163.91,364.24 -364.24,364.24l-3400.49 0c-200.33,0 -364.24,-163.91 -364.24,-364.24l0 -3569.01c0,-200.33 163.91,-364.24 364.24,-364.24z"/>
   <g style="clip-path:url(#id0)">
    <g>
     <polygon id="_1" class="fil1" points="2070.4,676.09 2972.87,2521.37 3893.56,4354.39 2070.4,4342.13 247.26,4354.39 1167.95,2521.37 "/>
    </g>
   </g>
   <path class="fil2" d="M364.24 0l3400.49 0c200.33,0 364.24,163.91 364.24,364.24l0 3569.01c0,200.33 -163.91,364.24 -364.24,364.24l-3400.49 0c-200.33,0 -364.24,-163.91 -364.24,-364.24l0 -3569.01c0,-200.33 163.91,-364.24 364.24,-364.24z"/>
   <path class="fil3" d="M17893.82 2228.02c9.58,10.19 18.78,20.68 27.58,31.47 36.58,44.83 65.45,94.82 86.58,150.46 21.12,55.15 31.43,116.97 31.43,186.54 0,112.33 -22.67,213.85 -68.02,305.06 -45.35,90.7 -107.69,168.51 -187.57,232.92 -79.87,64.4 -173.66,113.88 -281.36,148.4 -107.69,34.52 -223.63,52.05 -347.31,52.05 -79.36,0 -158.2,-9.28 -236.52,-27.84 -78.33,-18.55 -153.56,-44.82 -225.71,-78.84 -72.14,-34 -140.16,-75.24 -204.56,-123.16 -64.42,-47.92 -122.14,-101.51 -172.64,-161.29l0 1.55 -3.09 -6.18c-22.67,-25.76 -34.01,-49.47 -34.01,-71.11 0,-11.34 3.1,-22.16 9.28,-32.46 6.18,-10.3 15.46,-21.64 27.82,-34.01l51.03 -51.01c15.45,-13.41 31.95,-28.34 49.46,-44.83 17.52,-16.5 35.04,-31.43 52.56,-44.84 17.51,-13.39 34.01,-24.72 48.95,-34 14.95,-9.27 26.79,-13.92 36.07,-13.92 14.43,0 27.84,4.65 40.2,13.92 12.37,9.28 22.67,18.03 30.92,26.28l6.18 6.18 -1.55 0c36.08,34.01 76.78,66.47 121.61,97.4 44.83,30.9 90.69,58.22 138.1,82.45 47.4,24.21 94.82,43.27 141.71,57.19 46.9,13.92 90.69,21.14 131.9,21.14 56.68,0 109.77,-7.22 159.23,-21.65 49.47,-14.42 92.23,-35.03 128.31,-61.32 36.07,-26.28 64.41,-57.71 85.03,-95.32 20.61,-37.11 30.91,-78.34 30.91,-123.68 0,-45.34 -13.4,-84.5 -40.2,-116.97 -26.79,-32.45 -61.84,-60.79 -105.11,-85.02 -43.29,-24.22 -91.73,-45.35 -145.84,-62.86 -54.1,-17.52 -108.72,-34.02 -163.34,-49.47 -76.66,-23.26 -147.39,-47.66 -212.3,-73.21l994.25 0z"/>
   <path class="fil3" d="M17694.68 1618.97c-13.4,0 -25.77,-3.6 -37.11,-10.3 -11.33,-6.7 -24.21,-15.46 -38.64,-26.79l-3.1 -1.54c-19.58,-19.59 -44.82,-41.24 -75.75,-64.94 -30.92,-23.7 -65.44,-45.85 -103.58,-66.46 -38.13,-20.62 -78.83,-38.13 -122.63,-52.56 -43.81,-14.42 -88.63,-21.64 -133.98,-21.64 -57.71,0 -108.73,6.7 -153.05,19.59 -44.32,12.88 -81.41,30.4 -111.3,52.56 -29.88,22.16 -52.56,47.92 -68.01,77.81 -15.47,30.41 -23.19,62.35 -23.19,96.36 0,37.1 11.33,69.56 34.53,97.39 23.19,27.84 54.62,52.56 94.3,74.21 39.68,21.65 85.02,41.73 136.55,59.78 51.53,18.03 105.64,36.06 162.32,53.59 64.92,19.58 129.34,40.7 192.72,63.38 50.69,17.99 99.75,37.6 146.94,59.33l-1044.95 0 -0.67 -0.58c-62.87,-55.14 -109.76,-117.49 -141.19,-186.03 -31.44,-68.53 -47.41,-145.83 -47.41,-231.37 0,-95.85 19.58,-183.45 58.23,-262.29 38.64,-79.35 93.77,-146.85 164.89,-203.03 71.62,-56.16 157.16,-99.97 257.64,-131.4 99.97,-31.43 211.79,-47.4 335.46,-47.4 93.78,0 189.11,14.42 285.99,43.8 96.87,29.37 186.54,70.08 268.99,121.61 24.73,15.47 49.98,32.98 75.75,52.56 25.77,19.59 49.48,39.17 71.11,59.27 21.65,20.09 39.68,39.68 53.6,58.74 13.91,19.07 20.61,35.56 20.61,48.96 0,12.37 -3.1,24.73 -9.28,37.61 -6.18,12.89 -13.91,24.73 -23.18,35.04l-46.38 49.46 0 -1.54c-15.45,16.49 -31.43,33.48 -47.92,51.01 -16.49,17.52 -32.98,32.98 -49.47,46.9 -16.49,13.92 -31.43,25.76 -44.83,35.04 -13.4,9.27 -24.73,13.91 -34.01,13.91z"/>
   <path class="fil3" d="M14003.1 2028.71l0 -953.88c0,-16.5 5.66,-31.95 17.51,-46.39 11.85,-14.42 26.8,-21.63 45.36,-21.63l313.3 0c15.46,0 31.43,6.69 47.4,20.09 16.49,13.4 24.73,29.37 24.73,47.93l0 953.88 -448.3 0z"/>
   <path class="fil3" d="M15477.88 2028.71l0 -953.88c0,-18.55 6.7,-34.53 20.09,-47.93 13.4,-13.4 30.41,-20.09 51.02,-20.09l299.89 0c21.65,0 40.21,6.69 55.15,20.09 14.94,13.4 22.16,29.37 22.16,47.93l0 953.88 -448.31 0z"/>
   <path class="fil3" d="M14451.4 2370.28c0,86.57 12.37,164.38 37.11,233.43 24.73,69.05 59.78,127.27 104.6,175.21 45.35,47.92 98.95,84.5 161.29,109.75 62.87,25.25 132.43,38.13 208.69,38.13 80.39,0 153.05,-13.39 216.94,-40.19 64.42,-26.79 118.01,-64.92 162.32,-113.88 43.81,-48.96 77.29,-107.7 100.48,-176.24 23.19,-68.54 35.04,-143.77 35.04,-226.21l0 -142.26 448.31 0 0 160.29c0,159.74 -25.76,299.39 -77.3,418.41 -51.52,119.04 -121.08,218.49 -208.69,297.85 -87.6,79.35 -189.63,138.61 -306.08,177.77 -116.47,39.16 -239.61,58.75 -369.47,58.75 -129.85,0 -253.01,-21.13 -369.47,-62.86 -116.45,-41.74 -218.48,-102.55 -306.08,-182.94 -87.61,-80.38 -157.17,-180.35 -208.69,-298.87 -51.53,-118.51 -77.29,-254.56 -77.29,-408.11l0 -160.29 448.3 0 0 142.26z"/>
   <path class="fil3" d="M12347.57 2028.71c-98.42,-146.47 -195.93,-291.63 -292.81,-435.5 -122.12,-181.9 -238.06,-353.49 -347.3,-515.3l-7.73 -10.82c-9.28,-15.47 -13.92,-27.31 -13.92,-35.56 0,-11.34 5.67,-18.04 17.01,-19.58 11.34,-1.55 24.22,-3.1 38.65,-5.15l364.83 0c22.67,0 41.73,4.64 56.68,14.42 14.94,9.79 29.89,26.28 45.35,48.95l468.41 696.17 471.49 -696.17c16.5,-22.67 32.47,-39.16 47.41,-48.95 14.95,-9.79 33.49,-14.42 56.17,-14.42l367.91 0c16.5,1.02 28.87,3.09 37.11,6.69 8.24,3.6 12.37,10.83 12.37,21.13 0,9.28 -6.18,23.19 -18.55,41.74 -110.27,161.8 -227.25,333.91 -350.92,515.81 -98.11,144.3 -196.21,289.89 -294.31,436.53l-657.83 0z"/>
   <path class="fil3" d="M11682.72 3249.89c10.3,-16.5 20.61,-33.49 30.91,-50.5 10.3,-17.01 21.13,-34.02 32.46,-51.53l621.56 -919.84 618.12 0 672.59 995.59c9.27,14.42 15.46,26.29 18.03,36.08 2.58,9.79 3.61,17.52 3.61,22.66 0,14.43 -11.35,21.65 -34.01,21.65l-389.56 0c-14.44,0 -26.8,-2.58 -37.11,-7.73 -10.3,-5.15 -20.1,-12.37 -29.37,-21.64 -9.28,-9.27 -18.05,-20.62 -26.8,-34.01 -8.77,-13.4 -19.06,-28.34 -30.41,-44.82 -77.29,-113.37 -153.04,-226.22 -227.76,-339.08 -74.71,-112.33 -150.97,-225.18 -228.27,-338.55 -82.45,121.62 -163.87,243.23 -244.77,364.31 -80.91,121.1 -162.32,242.71 -243.73,364.32 -22.68,38.13 -51.53,57.2 -86.58,57.2l-392.65 0c-22.67,0 -34.01,-7.73 -34.01,-23.19 0,-3.1 1.03,-8.76 3.09,-17.01 2.06,-8.25 3.6,-12.89 4.65,-13.91z"/>
   <path class="fil3" d="M11200.4 2228.02l0 21.68c0,18.55 -5.15,35.03 -15.47,49.46 -10.29,14.43 -26.79,21.65 -49.47,21.65l-850.24 0 0 559.61 1139.32 0c28.86,0 47.93,6.18 57.2,18.55 9.27,12.37 13.92,31.43 13.92,57.71l0 282.38c0,43.28 -22.68,64.93 -68.02,64.93l-1531.99 0c-18.54,0 -34.52,-5.15 -47.92,-15.47 -13.39,-10.29 -20.1,-26.79 -20.1,-49.47l0 -1011.04 1372.76 0z"/>
   <path class="fil3" d="M9827.64 1081.01c0,-49.48 22.68,-74.21 68.02,-74.21l1491.79 0c26.79,0 45.85,7.73 57.19,22.66 11.35,14.95 17.01,33.49 17.01,56.68l0 273.11c0,18.54 -6.18,35.04 -19.06,49.47 -12.89,14.42 -32.46,21.65 -58.23,21.65l-1099.13 0 0 469.95 847.15 0c20.61,-2.06 37.1,2.58 49.47,13.39 12.37,10.82 18.55,28.86 18.55,54.62l0 60.37 -1372.76 0 0 -947.7z"/>
   <path class="fil3" d="M7776.25 2228.02l0 1007.96c0,22.67 -5.15,39.68 -15.97,51.02 -10.82,11.33 -29.37,17.01 -55.14,17.01l-296.82 0c-23.71,0 -40.7,-6.18 -51.52,-18.04 -10.83,-11.85 -16.5,-27.83 -16.5,-48.44l0 -1009.5 435.95 0z"/>
   <path class="fil3" d="M8886.19 2028.71l0 -963.16c3.09,-18.55 10.82,-32.98 23.19,-43.29 12.37,-10.29 27.31,-15.45 44.82,-15.45l298.36 0c20.61,0 38.65,6.18 53.59,18.54 14.95,12.37 22.16,28.86 22.16,49.48l0 953.88 -442.12 0z"/>
   <path class="fil3" d="M8662.9 2228.02l223.29 319.52 0 -319.52 442.12 0 0 1012.59c0,42.26 -24.21,63.39 -72.66,63.39l-334.94 0c-22.67,0 -43.8,-13.92 -63.39,-41.73 -181.38,-262.81 -361.74,-525.61 -541.57,-788.41l-168.03 -245.83 515.17 0z"/>
   <path class="fil3" d="M7340.3 1076.37c0,-19.59 6.18,-36.07 18.04,-49.47 11.85,-13.4 28.34,-20.09 49.98,-20.09l355.56 0c14.42,0 27.83,3.09 40.71,9.79 12.88,6.69 24.74,17.52 35.03,31.95 175.71,251.47 350.4,501.38 523.03,749.76l160.99 230.41 -512.1 0 -235.29 -344.3 0 344.3 -435.95 0 0 -952.34z"/>
   <path class="fil4" d="M5341.38 2028.71l386.56 -963.16c3.09,-11.34 11.85,-23.71 25.77,-37.61 13.9,-13.92 32.45,-21.13 56.16,-21.13l248.9 0c24.73,0 42.77,6.18 53.59,18.54 10.81,12.37 18.54,23.19 23.71,32.46l51.01 120.58 339.61 850.32 -431.61 0 -159.98 -432.93c-54.53,139.35 -108.57,283.68 -162.59,432.93l-431.11 0z"/>
   <path class="fil4" d="M4859.16 3246.8c5.15,-20.61 11.34,-39.68 18.03,-57.19 6.7,-17.52 12.37,-33.5 17.52,-47.93l366.68 -913.66 437.73 0c-32.06,85.38 -64.22,168.87 -96.39,250.47l658.56 0 -92.56 -250.47 437.56 0 397.02 994.04c0,3.1 1.03,8.25 2.58,15.97 1.55,7.73 2.06,14.43 2.06,19.59 0,30.91 -22.66,46.38 -68.01,46.38l-304.55 0c-22.67,0 -40.19,-4.65 -52.56,-13.92 -12.37,-9.27 -22.67,-23.71 -30.91,-43.28l-27.83 -71.11c-19.59,-49.47 -39.17,-98.95 -58.75,-148.4 -19.59,-49.47 -38.65,-99.46 -57.19,-149.95l-953.82 0c-26.79,72.14 -52.56,139.64 -77.81,203.02 -25.25,63.39 -46.9,119.04 -64.41,166.44 -14.43,38.13 -41.23,57.2 -80.39,57.2l-309.18 0c-19.59,0 -35.03,-3.6 -46.9,-10.82 -11.84,-7.22 -18.03,-18.04 -18.03,-32.46 0,-6.18 0.52,-10.82 1.55,-13.92z"/>
   <polygon class="fil3" points="2071.04,4216.98 2504.11,3331.46 2945.93,2451.83 2071.04,2457.71 1196.14,2451.83 1637.96,3331.46 "/>
  </g>
 </g>
</svg>
